<?xml version="1.0" standalone="no"?>
<!DOCTYPE svg PUBLIC "-//W3C//DTD SVG 20010904//EN"
 "http://www.w3.org/TR/2001/REC-SVG-20010904/DTD/svg10.dtd">
<svg version="1.0" xmlns="http://www.w3.org/2000/svg"
 width="512.000000pt" height="629.000000pt" viewBox="0 0 512.000000 629.000000"
 preserveAspectRatio="xMidYMid meet">

<g transform="translate(0.000000,629.000000) scale(0.100000,-0.100000)"
fill="#000000" stroke="none">
<path d="M4083 6263 c-7 -2 -13 -12 -13 -21 0 -13 2 -14 9 -3 6 9 11 10 15 2
4 -6 5 -11 3 -11 -3 0 -1 -16 3 -36 5 -19 6 -33 3 -30 -3 3 -14 1 -25 -5 -16
-9 -17 -13 -7 -25 10 -13 10 -17 -2 -24 -11 -8 -12 -13 -1 -30 14 -23 16 -33
4 -26 -7 4 -8 -27 -2 -44 1 -3 1 -16 0 -28 -1 -20 2 -23 19 -17 13 4 21 2 21
-5 0 -6 -4 -9 -9 -6 -5 3 -12 -4 -16 -17 -21 -65 -22 -90 -5 -94 12 -4 12 -3
2 5 -11 7 -11 10 3 15 9 4 13 3 10 -3 -3 -6 0 -10 7 -10 7 -1 2 -7 -11 -14
-15 -8 -20 -16 -12 -20 15 -10 14 -63 -3 -78 -10 -10 -11 -19 -3 -35 6 -13 14
-23 19 -23 4 0 8 -8 8 -17 0 -14 -2 -15 -9 -4 -7 11 -10 11 -17 0 -4 -7 -3
-14 4 -17 7 -2 12 -10 12 -18 0 -9 -5 -12 -12 -8 -7 4 -8 3 -4 -4 4 -7 15 -12
24 -13 14 0 13 -2 -3 -8 -11 -5 -24 -6 -29 -3 -5 3 -6 0 -2 -7 4 -6 11 -9 16
-6 4 3 11 -2 14 -11 9 -24 8 -26 -16 -13 -20 11 -22 11 -10 -3 10 -12 10 -18
1 -23 -8 -6 -7 -10 5 -17 11 -6 14 -14 9 -21 -10 -15 -10 -47 0 -47 4 0 9 0
12 0 3 0 1 9 -5 19 -7 14 -6 21 3 24 9 4 9 7 0 18 -16 17 -17 37 -1 21 14 -14
18 -84 6 -93 -5 -3 -4 -18 2 -33 6 -18 6 -25 0 -21 -12 7 -9 -23 4 -44 6 -10
5 -12 -2 -7 -7 4 -12 2 -12 -5 0 -8 -5 -7 -17 2 -16 13 -17 12 -4 -4 8 -9 11
-20 7 -24 -3 -3 1 -15 11 -25 9 -10 13 -18 8 -18 -4 0 -1 -8 6 -17 13 -16 12
-17 -3 -4 -13 9 -18 10 -18 2 0 -7 -4 -9 -10 -6 -5 3 -10 1 -10 -5 0 -7 7 -10
15 -7 8 4 17 2 20 -3 3 -5 -4 -12 -16 -15 -17 -6 -18 -9 -8 -16 8 -4 16 -4 20
3 4 5 7 -1 7 -15 0 -16 -7 -28 -17 -30 -13 -4 -13 -5 2 -6 15 -1 16 -5 7 -21
-11 -20 -8 -20 511 -20 l521 0 -7 78 c-28 308 -141 558 -350 767 -155 155
-338 258 -559 315 -80 20 -101 23 -123 13z m13 -241 c-3 -3 -1 -11 5 -19 6 -7
9 -13 5 -13 -3 0 -9 0 -13 0 -4 0 -8 11 -9 25 0 13 3 22 8 19 5 -3 7 -9 4 -12z
m4 -312 c0 -5 -2 -10 -4 -10 -3 0 -8 5 -11 10 -3 6 -1 10 4 10 6 0 11 -4 11
-10z m10 -419 c0 -4 -6 -8 -14 -8 -8 0 -12 6 -9 14 5 13 23 9 23 -6z"/>
<path d="M4075 6210 c-3 -5 -1 -10 4 -10 6 0 11 5 11 10 0 6 -2 10 -4 10 -3 0
-8 -4 -11 -10z"/>
<path d="M4065 5940 c-3 -5 -1 -10 4 -10 6 0 11 5 11 10 0 6 -2 10 -4 10 -3 0
-8 -4 -11 -10z"/>
<path d="M4066 5795 c4 -8 8 -15 10 -15 2 0 4 7 4 15 0 8 -4 15 -10 15 -5 0
-7 -7 -4 -15z"/>
<path d="M4066 5753 c-6 -14 -5 -15 5 -6 7 7 10 15 7 18 -3 3 -9 -2 -12 -12z"/>
<path d="M4065 5390 c-4 -6 -2 -17 4 -24 6 -7 9 -16 6 -19 -3 -4 -2 -5 2 -2
10 8 11 45 2 51 -4 2 -11 0 -14 -6z"/>
<path d="M1970 4265 c0 -8 3 -14 8 -14 18 3 32 -2 32 -12 0 -6 -5 -7 -12 -2
-19 11 -48 14 -48 5 0 -4 5 -13 12 -20 9 -9 9 -12 0 -12 -9 0 -12 -159 -12
-685 l0 -685 600 0 600 0 0 690 c0 650 -1 690 -17 691 -15 0 -15 2 -3 7 16 8
26 42 12 42 -5 0 -15 -11 -22 -25 -7 -14 -22 -25 -32 -25 -12 0 -16 -4 -12
-12 4 -7 3 -8 -4 -4 -16 9 -2 38 15 32 7 -3 16 1 20 10 7 19 -12 41 -21 25 -4
-6 -1 -11 6 -11 7 0 -3 -8 -22 -16 -19 -9 -42 -19 -50 -23 -23 -12 -43 -2 -30
14 11 14 -1 27 -27 31 -15 3 -17 -12 -3 -21 6 -3 10 -1 10 6 0 7 3 10 6 7 9
-10 -16 -49 -27 -43 -5 4 -7 11 -4 16 4 5 1 9 -5 9 -6 0 -9 4 -6 9 3 5 0 14
-8 20 -10 9 -17 2 -31 -29 -10 -22 -22 -37 -27 -33 -6 3 -5 9 3 15 10 7 8 8
-8 5 -13 -3 -26 0 -30 5 -4 7 -1 8 7 3 9 -6 11 -4 5 4 -5 9 -10 10 -18 2 -17
-17 -26 -13 -20 8 3 12 -2 20 -16 24 -23 6 -49 -17 -31 -28 10 -6 14 1 10 20
-3 20 18 -10 25 -35 6 -20 5 -23 -6 -14 -16 11 -29 12 -45 2 -13 -8 -41 -5
-51 7 -4 4 -3 5 4 1 6 -3 14 -2 17 3 9 13 -19 7 -38 -8 -9 -8 -16 -9 -16 -3 0
6 5 12 10 14 7 2 5 11 -5 23 -9 12 -13 14 -10 5 8 -23 -17 -52 -38 -44 -9 3
-17 13 -17 21 0 8 -4 11 -10 8 -6 -4 -7 1 -3 12 3 10 3 15 -1 11 -5 -4 -19 -2
-33 3 -25 9 -25 9 -9 -15 20 -31 20 -32 0 -40 -25 -9 -35 3 -23 26 8 15 8 19
0 13 -7 -4 -18 -1 -26 5 -17 14 -45 6 -45 -12 0 -9 3 -8 10 2 8 13 10 13 10
-2 0 -20 -16 -32 -25 -19 -9 16 -34 1 -28 -17 4 -14 3 -14 -5 -3 -10 15 -6 41
7 41 4 0 8 7 8 16 0 12 -5 10 -18 -7 -10 -13 -19 -28 -19 -34 0 -5 -4 -4 -8 3
-7 9 -15 10 -35 3 -22 -9 -27 -8 -27 5 0 9 5 12 12 8 7 -4 8 -3 4 5 -5 7 -12
9 -19 3 -19 -15 -47 -10 -47 7 0 13 -2 14 -9 2 -5 -8 -7 -21 -4 -30 3 -9 -4
-2 -16 14 -11 17 -21 24 -21 16 0 -11 -3 -11 -17 0 -15 12 -16 12 -10 -6 7
-19 6 -19 -11 2 -13 15 -23 18 -33 12 -13 -8 -5 -13 14 -10 5 1 6 -3 2 -9 -3
-5 -1 -10 6 -10 8 0 5 -6 -5 -13 -10 -7 -32 -12 -50 -11 -82 4 -77 2 -64 24 7
11 19 20 27 20 8 0 12 3 8 6 -3 4 -14 3 -24 0 -20 -8 -29 -5 -25 7 1 4 -6 4
-16 -2 -11 -6 -24 -6 -35 0 -13 8 -17 6 -17 -6z m57 -27 c-3 -8 -6 -5 -6 6 -1
11 2 17 5 13 3 -3 4 -12 1 -19z m472 8 c9 -10 8 -16 -4 -26 -13 -11 -15 -8
-15 14 0 30 3 32 19 12z m-272 -23 c0 -16 -2 -23 -4 -16 -2 7 -11 9 -19 6 -20
-7 -18 7 4 23 9 7 18 14 18 14 1 0 1 -12 1 -27z m696 2 c4 -8 3 -16 -1 -19 -4
-3 -9 4 -9 15 -2 23 3 25 10 4z m-909 -17 c-3 -5 -12 -4 -20 3 -19 16 -18 18
6 12 11 -3 17 -9 14 -15z m291 12 c3 -5 2 -10 -4 -10 -5 0 -13 5 -16 10 -3 6
-2 10 4 10 5 0 13 -4 16 -10z"/>
<path d="M2123 4268 c7 -20 -9 -25 -16 -5 -3 7 -6 4 -6 -6 -1 -10 -5 -16 -10
-12 -5 3 -12 1 -15 -4 -3 -5 1 -11 9 -15 8 -3 15 -2 15 3 0 5 11 7 25 6 29 -4
31 2 8 30 -13 16 -15 17 -10 3z"/>
<path d="M2364 4258 c12 -7 21 -7 28 0 6 6 0 10 -18 10 -23 0 -24 -2 -10 -10z"/>
<path d="M2705 4260 c-17 -8 -17 -9 7 -7 15 1 24 5 22 9 -3 4 -6 8 -7 7 -1 0
-11 -4 -22 -9z"/>
<path d="M3003 4246 c0 -18 3 -24 9 -18 7 7 7 16 0 28 -8 14 -9 13 -9 -10z"/>
<path d="M3027 4254 c3 -8 10 -13 15 -12 16 6 14 21 -4 24 -11 1 -15 -3 -11
-12z"/>
<path d="M2610 4245 c0 -9 5 -15 11 -13 6 2 11 8 11 13 0 5 -5 11 -11 13 -6 2
-11 -4 -11 -13z"/>
<path d="M2860 4248 c0 -4 4 -8 9 -8 6 0 12 4 15 8 3 5 -1 9 -9 9 -8 0 -15 -4
-15 -9z"/>
<path d="M52 3304 c-6 -7 -12 -21 -13 -31 0 -10 -3 -13 -5 -6 -3 7 -12 9 -20
6 -12 -4 -14 -150 -14 -1039 l0 -1034 600 0 600 0 0 1016 c0 674 -3 1013 -10
1009 -5 -3 -10 -1 -10 4 0 6 4 11 8 11 4 0 8 9 9 20 2 24 -33 47 -40 27 -4 -9
-6 -9 -6 0 -1 9 -8 10 -27 3 -28 -11 -48 -5 -38 12 4 6 -3 5 -15 -2 -12 -6
-26 -21 -31 -33 -5 -13 -9 -16 -10 -7 0 8 -12 23 -26 34 -25 18 -26 18 -16 0
5 -11 7 -26 4 -34 -4 -13 -3 -13 11 -2 13 11 15 10 12 -5 -2 -10 -4 -21 -4
-25 -1 -5 -6 -8 -12 -8 -5 0 -7 5 -4 10 3 6 1 10 -4 10 -6 0 -11 -5 -11 -11 0
-8 -5 -8 -15 1 -8 7 -15 18 -14 24 0 7 2 6 6 -1 2 -7 9 -13 15 -13 6 0 8 7 4
15 -3 8 0 15 6 15 8 0 8 4 -1 13 -10 9 -15 9 -18 0 -2 -7 -11 -9 -19 -6 -11 4
-12 9 -4 18 9 11 7 12 -9 8 -21 -5 -38 -33 -20 -33 6 0 9 -6 6 -14 -3 -8 -2
-17 4 -20 5 -2 5 -4 -1 -2 -7 1 -10 4 -8 8 5 10 -34 48 -43 42 -5 -3 -9 -1 -9
4 0 12 -76 9 -87 -3 -5 -4 -1 -5 7 0 9 5 12 5 7 -1 -5 -5 -12 -9 -15 -10 -4 0
-25 -6 -47 -12 -42 -12 -58 -4 -48 27 4 12 3 13 -5 3 -7 -11 -10 -11 -15 2 -7
18 -27 22 -27 5 0 -5 5 -7 12 -3 7 4 8 3 4 -4 -5 -9 -14 -7 -32 5 -14 9 -24
12 -22 7 3 -8 -6 -16 -14 -13 -16 5 -55 3 -52 -3 3 -4 13 -8 23 -8 9 0 22 -5
28 -11 7 -7 13 -7 17 0 10 16 35 1 29 -17 -6 -15 -4 -15 14 1 11 9 23 14 26
10 11 -11 8 -24 -5 -21 -7 1 -23 -4 -36 -11 -20 -11 -23 -10 -20 5 4 22 -29
27 -41 6 -10 -18 -41 -26 -41 -10 0 6 -6 8 -13 5 -8 -3 -13 5 -14 22 -1 21 0
23 6 7 7 -17 8 -18 14 -3 8 22 -8 30 -33 17 -15 -8 -19 -7 -16 2 1 7 1 10 -1
6 -6 -11 -33 -10 -33 1 0 5 -6 11 -14 14 -10 4 -14 0 -11 -14 2 -10 -2 -19 -8
-19 -8 0 -7 -4 2 -9 21 -13 22 -40 2 -36 -9 2 -18 4 -21 5 -3 1 -9 2 -13 1 -5
-1 -6 3 -2 9 5 8 11 8 20 0 8 -7 15 -7 19 -1 4 5 -3 13 -14 16 -16 5 -18 10
-10 20 12 15 3 15 -38 1 -14 -5 -29 -3 -37 4 -8 7 -15 9 -15 4 0 -5 -13 -9
-29 -10 -20 -1 -32 5 -39 20 -6 12 -11 15 -11 8 -1 -7 -5 -11 -10 -8 -4 3 -6
-6 -3 -19 2 -14 9 -25 14 -25 5 0 6 6 2 13 -5 9 -4 9 6 0 7 -6 18 -10 24 -9 6
2 8 1 3 -1 -4 -3 -4 -10 -1 -15 5 -7 2 -8 -7 -2 -14 9 -17 9 -59 13 -14 2 -19
5 -12 8 6 2 12 14 12 25 0 18 -2 19 -17 7 -9 -8 -14 -9 -10 -3 4 7 0 15 -9 18
-9 3 -12 2 -9 -5 4 -6 0 -9 -8 -7 -9 2 -23 -6 -32 -17 -11 -13 -15 -15 -12 -5
3 9 0 23 -7 32 -9 13 -13 13 -24 2z m1020 -36 c-7 -7 -12 -8 -12 -2 0 14 12
26 19 19 2 -3 -1 -11 -7 -17z m-269 -8 c-8 -29 -21 -34 -39 -16 -14 15 -14 16
5 16 11 0 23 5 26 10 10 16 14 12 8 -10z m332 10 c-3 -5 -10 -10 -16 -10 -5 0
-9 5 -9 10 0 6 7 10 16 10 8 0 12 -4 9 -10z m-797 -27 c7 -7 9 -13 3 -13 -5 0
-13 5 -16 10 -4 6 -10 8 -15 5 -4 -3 -16 -2 -25 1 -12 5 -13 9 -4 14 14 9 38
2 57 -17z m126 6 c-8 -14 -21 -11 -21 5 0 8 6 12 14 9 7 -3 10 -9 7 -14z m636
11 c0 -5 -5 -10 -11 -10 -5 0 -7 5 -4 10 3 6 8 10 11 10 2 0 4 -4 4 -10z
m-954 -20 c0 -11 -3 -20 -7 -20 -10 0 -19 27 -12 34 12 11 19 6 19 -14z m-72
-21 c-8 -13 -24 -1 -24 18 0 13 3 13 15 3 8 -7 12 -16 9 -21z m33 16 c0 -8 -4
-12 -9 -9 -5 3 -6 10 -3 15 9 13 12 11 12 -6z m613 11 c0 -2 -8 -10 -17 -17
-16 -13 -17 -12 -4 4 13 16 21 21 21 13z m407 -11 c0 -8 -4 -12 -9 -9 -5 3 -6
10 -3 15 9 13 12 11 12 -6z m-951 -10 c-3 -23 -12 -26 -13 -5 -1 11 2 20 7 20
4 0 7 -7 6 -15z m579 5 c3 -5 2 -10 -4 -10 -5 0 -13 5 -16 10 -3 6 -2 10 4 10
5 0 13 -4 16 -10z m302 4 c-3 -3 -12 -4 -19 -1 -8 3 -5 6 6 6 11 1 17 -2 13
-5z m103 -24 c0 -5 -5 -10 -11 -10 -5 0 -7 5 -4 10 3 6 8 10 11 10 2 0 4 -4 4
-10z"/>
<path d="M735 3300 c-4 -6 -14 -9 -22 -8 -9 2 -17 -5 -18 -14 -3 -14 0 -16 15
-8 9 5 20 7 22 4 3 -2 11 2 17 10 8 9 8 16 2 20 -5 4 -13 2 -16 -4z"/>
<path d="M1010 3300 c0 -6 7 -10 15 -10 8 0 15 2 15 4 0 2 -7 6 -15 10 -8 3
-15 1 -15 -4z"/>
<path d="M248 3293 c6 -2 18 -2 25 0 6 3 1 5 -13 5 -14 0 -19 -2 -12 -5z"/>
<path d="M523 3254 c0 -21 22 -24 35 -4 9 15 7 18 -12 18 -12 0 -23 -6 -23
-14z"/>
<path d="M3976 2112 c-2 -4 -1 -14 3 -21 6 -9 11 -10 15 -2 4 6 2 11 -4 11 -6
0 -8 5 -5 10 3 6 4 10 1 10 -3 0 -7 -4 -10 -8z"/>
<path d="M4107 2098 c10 -12 12 -18 6 -14 -21 12 -15 -4 10 -26 l22 -20 -25
15 c-14 8 -24 22 -24 31 1 9 -3 16 -8 16 -6 0 -8 -11 -6 -25 4 -18 -1 -29 -18
-40 -17 -11 -24 -12 -27 -2 -4 9 -6 9 -6 0 -1 -7 -5 -13 -11 -13 -5 0 -7 7 -4
15 4 8 14 15 24 15 11 0 21 4 24 8 2 4 -8 7 -22 6 -15 -1 -31 1 -37 5 -5 3
-16 6 -24 8 -8 1 -18 8 -22 15 -7 11 -9 10 -9 -1 0 -11 -3 -11 -17 0 -16 13
-17 12 -5 -3 10 -13 10 -17 0 -21 -9 -4 -7 -6 4 -6 9 -1 18 4 20 11 3 9 6 9
12 0 4 -8 -2 -16 -18 -22 -15 -5 -26 -13 -25 -17 1 -5 1 -194 0 -420 l-1 -413
-786 0 -786 0 16 -25 c15 -23 15 -25 -5 -36 -24 -12 -50 3 -28 16 8 5 10 4 5
-3 -8 -14 3 -15 22 -3 10 6 7 12 -12 24 -32 22 -46 21 -45 0 0 -11 3 -13 6 -5
2 6 9 12 14 12 6 0 6 -8 -1 -19 -5 -11 -7 -27 -3 -37 4 -11 2 -15 -4 -11 -6 4
-9 -3 -8 -16 3 -30 3 -30 21 -13 8 9 12 20 9 26 -3 5 -1 10 4 10 18 0 12 -21
-14 -52 -20 -24 -23 -33 -14 -44 6 -8 8 -14 3 -14 -16 0 -13 -55 4 -74 11 -13
12 -17 3 -11 -11 6 -13 4 -8 -8 3 -10 2 -17 -3 -17 -6 0 -10 -5 -10 -11 0 -5
5 -7 10 -4 6 3 10 1 10 -4 0 -18 -5 -26 -12 -23 -5 1 -8 -2 -8 -8 0 -5 4 -10
9 -10 6 0 9 -12 8 -27 -1 -17 3 -27 10 -26 6 1 14 -4 17 -12 6 -17 -15 -20
-30 -5 -9 9 -11 -7 -5 -57 1 -16 41 -17 41 -2 0 5 -4 7 -10 4 -5 -3 -10 1 -10
9 0 20 19 21 26 1 5 -13 9 -13 23 -3 11 9 10 6 -3 -9 -16 -20 -17 -25 -5 -39
13 -16 12 -16 -8 -6 -30 17 -38 15 -22 -5 13 -15 12 -16 -9 -11 -12 4 -20 2
-16 -3 3 -5 12 -9 19 -9 9 0 12 -6 9 -15 -4 -8 -12 -15 -20 -15 -8 0 -15 -4
-15 -10 -1 -5 -2 -16 -3 -22 -3 -18 46 -88 62 -88 10 0 10 -3 0 -14 -11 -12
-14 -12 -22 3 -13 21 -33 41 -42 41 -4 0 3 -11 16 -25 13 -14 20 -28 15 -32
-4 -5 -10 -2 -12 5 -7 19 -22 14 -20 -8 1 -22 23 -35 32 -19 8 12 22 3 35 -24
10 -20 10 -20 -3 -5 -8 10 -17 15 -21 11 -3 -3 1 -14 9 -23 9 -9 14 -28 11
-41 -2 -13 1 -32 6 -41 5 -12 5 -18 -2 -18 -5 0 -10 6 -10 14 0 8 -6 16 -12
19 -10 3 -10 7 -1 18 17 21 -16 73 -33 55 -9 -10 -7 -16 7 -24 21 -13 26 -34
8 -30 -6 2 -13 -9 -14 -25 -3 -23 -1 -26 13 -18 12 7 19 3 29 -16 17 -33 16
-38 -3 -19 -8 9 -19 16 -24 16 -13 0 -21 -33 -11 -43 7 -7 5 -15 -7 -24 -13
-10 -13 -12 -2 -8 15 5 57 -29 60 -49 2 -9 -19 -26 -31 -26 -4 0 -10 7 -13 16
-4 12 -2 15 9 11 24 -10 26 9 3 29 -19 17 -21 17 -15 2 3 -10 2 -20 -4 -24 -6
-3 -8 -12 -5 -20 3 -8 0 -14 -7 -14 -7 0 -4 -5 5 -11 9 -5 15 -16 12 -23 -3
-8 -1 -17 5 -21 7 -3 8 0 5 9 -7 19 11 21 23 4 16 -26 9 -33 -29 -33 -38 1
-38 0 -17 -16 14 -10 20 -22 16 -33 -6 -15 62 -16 871 -13 955 4 921 2 1104
63 376 125 670 439 772 824 38 142 46 273 46 727 l0 413 -25 16 c-13 8 -29 13
-35 9 -6 -4 -11 -1 -9 6 3 27 -1 40 -12 33 -8 -4 -7 -9 2 -15 10 -6 7 -8 -9
-6 -12 1 -21 6 -18 12 2 7 -2 12 -9 12 -11 0 -11 -5 -4 -19 11 -21 6 -48 -9
-48 -5 0 -15 11 -22 25 -20 38 -78 18 -63 -22 4 -9 0 -11 -11 -7 -18 7 -22 24
-4 24 6 0 8 3 4 8 -4 4 -17 7 -29 7 -12 0 -26 10 -33 23 -6 13 -14 19 -18 14
-3 -5 1 -15 9 -22 8 -7 12 -17 8 -23 -4 -6 -1 -7 8 -2 12 7 12 6 1 -6 -7 -8
-17 -15 -22 -15 -6 -1 -15 -2 -21 -3 -5 0 -7 -7 -3 -13 6 -10 5 -10 -7 -1 -9
7 -33 15 -54 18 -46 5 -78 31 -57 44 11 7 10 9 -3 14 -9 4 -14 3 -10 -2 3 -5
-2 -16 -10 -25 -8 -8 -11 -17 -6 -20 5 -4 12 0 14 6 4 9 6 10 6 1 2 -21 -20
-25 -34 -7 -14 18 -14 18 -16 -1 -1 -11 -1 -24 0 -28 1 -5 -3 -6 -8 -3 -5 3
-7 15 -4 26 3 12 0 20 -6 20 -7 0 -10 -3 -8 -7 3 -5 -2 -14 -10 -22 -13 -12
-14 -11 -9 7 4 12 2 23 -5 28 -8 4 -9 3 -5 -4 4 -7 4 -12 -1 -13 -4 0 -18 -2
-30 -3 -12 -1 -20 1 -17 6 3 4 -1 11 -9 14 -9 3 -13 14 -11 27 2 12 2 16 -2 9
-3 -6 -11 -9 -17 -5 -7 4 -4 -5 6 -21 10 -15 16 -30 13 -34 -3 -3 -6 0 -6 7 0
7 -6 11 -12 8 -7 -2 -21 2 -30 10 -9 8 -22 12 -27 8 -18 -10 -12 -25 9 -25 11
0 20 -5 20 -11 0 -6 -7 -9 -15 -6 -8 4 -17 1 -21 -5 -4 -7 -10 -5 -15 5 -7 12
-16 14 -37 8 -23 -7 -28 -5 -28 10 0 22 7 24 23 8 8 -8 16 -8 30 0 13 8 14 11
3 10 -31 -3 -41 2 -50 24 -7 18 -9 19 -9 4 -1 -10 -7 -25 -15 -33 -16 -15 -27
-18 -25 -6 1 4 1 18 0 31 l-1 25 -22 -24 c-13 -13 -21 -32 -20 -41 2 -10 -2
-21 -9 -25 -8 -4 -9 -3 -5 4 4 7 2 12 -4 12 -10 0 -8 29 5 63 6 13 3 16 -9 11
-10 -4 -15 -13 -12 -20 3 -8 0 -11 -9 -8 -8 3 -13 11 -12 17 1 7 -5 12 -13 12
-8 0 -15 -8 -16 -18 -1 -12 -1 -13 3 -2 2 8 9 15 14 15 6 0 7 -4 4 -10 -3 -5
2 -22 11 -37 12 -22 13 -24 1 -9 -9 10 -20 15 -25 12 -6 -3 -15 6 -20 21 -6
16 -11 21 -11 13 -1 -13 -3 -13 -10 -1 -5 8 -17 16 -26 17 -15 2 -15 0 2 -18z
m172 -44 c-10 -12 -14 -12 -20 -2 -4 7 -3 16 4 20 18 11 29 -2 16 -18z m673
-2 c-7 -2 -9 -9 -6 -14 4 -7 2 -8 -4 -4 -6 4 -9 13 -6 21 4 8 11 12 17 8 8 -5
7 -8 -1 -11z m-972 -12 c-20 -20 -40 -26 -40 -12 0 7 36 28 53 31 4 0 -2 -8
-13 -19z m887 -2 c-3 -8 -6 -5 -6 6 -1 11 2 17 5 13 3 -3 4 -12 1 -19z m188
-6 c-1 -1 -12 -4 -24 -7 -18 -3 -20 -1 -11 16 9 15 13 17 24 7 8 -7 13 -14 11
-16z m-875 14 c0 -2 -7 -7 -16 -10 -8 -3 -12 -2 -9 4 6 10 25 14 25 6z m910
-30 c0 -11 -19 -15 -25 -6 -3 5 1 10 9 10 9 0 16 -2 16 -4z m-2738 -988 c-2
-10 0 -24 4 -31 5 -7 1 -4 -8 6 -10 11 -16 23 -13 27 3 5 -1 10 -7 13 -7 3 -4
5 8 4 15 -1 20 -6 16 -19z m-22 -62 c0 -3 -4 -8 -10 -11 -5 -3 -10 -1 -10 4 0
6 5 11 10 11 6 0 10 -2 10 -4z m27 -11 c0 -8 -4 -15 -9 -15 -4 0 -8 7 -8 15 0
8 4 15 8 15 5 0 9 -7 9 -15z m13 -61 c0 -15 -33 -11 -38 4 -2 6 6 10 17 9 12
-1 21 -7 21 -13z m-10 -28 c0 -2 -8 -10 -17 -17 -16 -13 -17 -12 -4 4 13 16
21 21 21 13z m10 -50 c0 -3 -4 -8 -10 -11 -5 -3 -10 -1 -10 4 0 6 5 11 10 11
6 0 10 -2 10 -4z m-5 -204 c-15 -10 -13 -31 5 -42 8 -5 12 -11 9 -15 -3 -3
-14 4 -24 15 -18 20 -14 50 7 50 8 0 9 -3 3 -8z m-5 -77 c0 -3 -7 -5 -16 -5
-8 0 -12 5 -9 10 3 6 1 10 -5 10 -6 0 -9 4 -5 9 3 5 1 12 -5 16 -6 4 -8 11 -4
17 5 8 44 -42 44 -57z m-14 -273 c-4 -3 1 -16 9 -29 19 -29 12 -30 -14 -2 -19
21 -19 55 1 43 5 -3 7 -9 4 -12z m21 -129 c-4 -3 -1 -13 6 -22 11 -14 10 -14
-5 -2 -16 12 -16 31 -1 31 4 0 3 -3 0 -7z m-3 -115 c-3 -4 -11 -8 -17 -8 -7 0
-6 4 3 10 11 7 11 10 2 10 -7 0 -10 5 -6 11 4 8 9 7 15 -2 4 -7 5 -17 3 -21z"/>
<path d="M4536 2112 c-7 -12 14 -31 40 -35 10 -1 24 -6 31 -10 6 -4 19 0 27 9
21 20 21 30 0 13 -14 -11 -18 -11 -29 4 -9 13 -15 15 -20 7 -5 -8 -12 -6 -25
5 -10 9 -21 12 -24 7z"/>
<path d="M5056 2105 c4 -8 8 -15 10 -15 2 0 4 7 4 15 0 8 -4 15 -10 15 -5 0
-7 -7 -4 -15z"/>
<path d="M4010 2098 c0 -4 -1 -11 -2 -15 -5 -10 35 -13 51 -3 14 8 14 9 1 10
-13 0 -13 2 0 10 10 6 5 9 -18 8 -18 -1 -32 -5 -32 -10z"/>
<path d="M4301 2094 c0 -11 3 -14 6 -6 3 7 2 16 -1 19 -3 4 -6 -2 -5 -13z"/>
<path d="M4350 2100 c0 -13 18 -22 24 -11 3 5 -1 11 -9 15 -8 3 -15 1 -15 -4z"/>
<path d="M4420 2100 c0 -5 7 -10 15 -10 8 0 15 -4 15 -10 0 -5 5 -10 11 -10
14 0 2 18 -22 30 -13 7 -19 7 -19 0z"/>
<path d="M4730 2103 c0 -6 6 -14 13 -17 9 -3 7 -9 -5 -19 -10 -8 -18 -18 -18
-22 0 -5 10 0 22 11 18 16 20 16 15 2 -8 -22 27 -30 50 -11 10 8 12 11 4 7 -9
-4 -12 -2 -9 7 3 8 1 22 -4 32 -7 13 -13 15 -27 8 -12 -7 -22 -6 -29 1 -9 9
-12 9 -12 1z m65 -23 c3 -5 2 -10 -4 -10 -6 0 -8 -8 -4 -17 5 -15 3 -14 -10 2
-15 20 -14 35 3 35 5 0 12 -4 15 -10z"/>
<path d="M4865 2094 c13 -14 19 -14 28 -4 9 10 9 11 0 6 -6 -3 -14 -2 -18 4
-3 5 -11 10 -16 10 -6 0 -3 -7 6 -16z"/>
<path d="M5078 2073 c7 -3 16 -2 19 1 4 3 -2 6 -13 5 -11 0 -14 -3 -6 -6z"/>
<path d="M4685 2060 c3 -5 10 -10 16 -10 5 0 9 5 9 10 0 6 -7 10 -16 10 -8 0
-12 -4 -9 -10z"/>
<path d="M1974 2048 c-9 -15 17 -181 38 -236 45 -123 149 -247 261 -311 141
-80 330 -99 480 -48 180 62 309 184 372 352 25 65 49 212 40 236 -4 12 -63 14
-360 14 -195 0 -355 -3 -355 -7 0 -5 -5 -8 -11 -8 -5 0 -8 3 -5 8 2 4 -99 7
-226 7 -126 1 -232 -3 -234 -7z"/>
<path d="M2296 632 c-3 -5 1 -9 9 -9 8 0 12 4 9 9 -3 4 -7 8 -9 8 -2 0 -6 -4
-9 -8z"/>
</g>
</svg>
